<svg width="64" height="64" viewBox="0 0 64 64" fill="none" xmlns="http://www.w3.org/2000/svg">
<g clip-path="url(#clip0_180_171)">
<path opacity="0.1" d="M58.6665 27.9612V50.6679C58.6622 54.2028 57.2561 57.5917 54.7565 60.0913C52.257 62.5909 48.868 63.997 45.3331 64.0012H18.6665C15.1315 63.997 11.7426 62.5909 9.24305 60.0913C6.74348 57.5917 5.33736 54.2028 5.33313 50.6679V13.3346C5.33736 9.79963 6.74348 6.41071 9.24305 3.91114C11.7426 1.41157 15.1315 0.00545542 18.6665 0.00122113H30.7065C33.1588 -0.00509067 35.588 0.474788 37.8537 1.41311C40.1194 2.35144 42.1767 3.72959 43.9065 5.46789L53.1971 14.7639C54.9364 16.4925 56.3154 18.5491 57.2543 20.8145C58.1931 23.0799 58.6731 25.509 58.6665 27.9612ZM40.1358 9.23855C39.2965 8.42565 38.3543 7.72635 37.3331 7.15856V18.6679C37.3331 19.3751 37.6141 20.0534 38.1142 20.5535C38.6143 21.0536 39.2926 21.3346 39.9998 21.3346H51.5091C50.941 20.3137 50.2408 19.3723 49.4265 18.5346L40.1358 9.23855ZM53.3331 27.9612C53.3331 27.5212 53.2478 27.0999 53.2078 26.6679H39.9998C37.8781 26.6679 35.8432 25.825 34.3429 24.3247C32.8426 22.8245 31.9998 20.7896 31.9998 18.6679V5.45989C31.5678 5.41989 31.1438 5.33455 30.7065 5.33455H18.6665C16.5447 5.33455 14.5099 6.17741 13.0096 7.6777C11.5093 9.17799 10.6665 11.2128 10.6665 13.3346V50.6679C10.6665 52.7896 11.5093 54.8245 13.0096 56.3247C14.5099 57.825 16.5447 58.6679 18.6665 58.6679H45.3331C47.4549 58.6679 49.4897 57.825 50.99 56.3247C52.4903 54.8245 53.3331 52.7896 53.3331 50.6679V27.9612Z" fill="#191919"/>
<path d="M40.5517 37.8865L35.7703 42.6678L40.5517 47.4491C40.8064 47.6951 41.0095 47.9894 41.1493 48.3147C41.289 48.6401 41.3626 48.99 41.3657 49.3441C41.3687 49.6982 41.3013 50.0493 41.1672 50.377C41.0331 50.7047 40.8351 51.0025 40.5847 51.2529C40.3343 51.5032 40.0366 51.7013 39.7089 51.8353C39.3811 51.9694 39.03 52.0369 38.6759 52.0338C38.3218 52.0307 37.9719 51.9572 37.6466 51.8174C37.3212 51.6777 37.027 51.4745 36.781 51.2198L31.9997 46.4385L27.2183 51.2198C26.7154 51.7056 26.0418 51.9744 25.3426 51.9683C24.6434 51.9622 23.9746 51.6818 23.4801 51.1873C22.9857 50.6929 22.7053 50.0241 22.6992 49.3249C22.6931 48.6257 22.9619 47.9521 23.4477 47.4491L28.229 42.6678L23.4477 37.8865C22.9619 37.3835 22.6931 36.7099 22.6992 36.0107C22.7053 35.3116 22.9857 34.6427 23.4801 34.1483C23.9746 33.6539 24.6434 33.3734 25.3426 33.3673C26.0418 33.3613 26.7154 33.6301 27.2183 34.1158L31.9997 38.8971L36.781 34.1158C37.2839 33.6301 37.9575 33.3613 38.6567 33.3673C39.3559 33.3734 40.0248 33.6539 40.5192 34.1483C41.0136 34.6427 41.294 35.3116 41.3001 36.0107C41.3062 36.7099 41.0374 37.3835 40.5517 37.8865Z" fill="#F75708"/>
</g>
<defs>
<clipPath id="clip0_180_171">
<rect width="64" height="64" fill="white"/>
</clipPath>
</defs>
</svg>
