<svg width="24" height="24" viewBox="0 0 24 24" fill="none" xmlns="http://www.w3.org/2000/svg">
<g clip-path="url(#clip0_292_2812)">
<path d="M12.0002 17.17C11.3431 17.1712 10.6923 17.0429 10.0849 16.7923C9.47746 16.5418 8.92538 16.174 8.46019 15.71L0.290185 7.54002C0.101882 7.35172 -0.00390625 7.09632 -0.00390625 6.83002C-0.00390625 6.56372 0.101882 6.30832 0.290185 6.12002C0.478489 5.93172 0.733884 5.82593 1.00019 5.82593C1.26649 5.82593 1.52188 5.93172 1.71019 6.12002L9.88019 14.29C10.4427 14.8518 11.2052 15.1674 12.0002 15.1674C12.7952 15.1674 13.5577 14.8518 14.1202 14.29L22.2902 6.12002C22.4785 5.93172 22.7339 5.82593 23.0002 5.82593C23.2665 5.82593 23.5219 5.93172 23.7102 6.12002C23.8985 6.30832 24.0043 6.56372 24.0043 6.83002C24.0043 7.09632 23.8985 7.35172 23.7102 7.54002L15.5402 15.71C15.075 16.174 14.5229 16.5418 13.9155 16.7923C13.3081 17.0429 12.6572 17.1712 12.0002 17.17Z" fill="#191919"/>
</g>
<defs>
<clipPath id="clip0_292_2812">
<rect width="24" height="24" fill="white"/>
</clipPath>
</defs>
</svg>
