<svg width="24" height="24" viewBox="0 0 24 24" fill="none" xmlns="http://www.w3.org/2000/svg">
<path d="M9.33282 15.919L5.41382 12C5.22629 11.8126 4.97198 11.7073 4.70682 11.7073C4.44165 11.7073 4.18735 11.8126 3.99982 12C3.81235 12.1876 3.70703 12.4419 3.70703 12.707C3.70703 12.9722 3.81235 13.2265 3.99982 13.414L7.91882 17.333C8.10455 17.5188 8.32506 17.6662 8.56776 17.7668C8.81047 17.8674 9.07061 17.9191 9.33332 17.9191C9.59603 17.9191 9.85617 17.8674 10.0989 17.7668C10.3416 17.6662 10.5621 17.5188 10.7478 17.333L19.9998 8.08105C20.1873 7.89352 20.2926 7.63922 20.2926 7.37405C20.2926 7.10889 20.1873 6.85458 19.9998 6.66705V6.66705C19.8123 6.47958 19.558 6.37427 19.2928 6.37427C19.0277 6.37427 18.7733 6.47958 18.5858 6.66705L9.33282 15.919Z" fill="#5B985E"/>
</svg>
