<svg width="64" height="64" viewBox="0 0 64 64" fill="none" xmlns="http://www.w3.org/2000/svg">
<g clip-path="url(#clip0_175_120)">
<path opacity="0.1" d="M2.66667 37.3333C4.13943 37.3333 5.33333 38.5272 5.33333 40C5.33333 44.4183 8.91506 48 13.3333 48C14.8061 48 16 49.1939 16 50.6667C16 52.1394 14.8061 53.3333 13.3333 53.3333C5.96954 53.3333 -5.17772e-07 47.3638 0 40C1.28753e-07 38.5272 1.19391 37.3333 2.66667 37.3333ZM29.3333 48C30.8061 48 32 49.1939 32 50.6667C32 52.1394 30.8061 53.3333 29.3333 53.3333H24C22.5272 53.3333 21.3333 52.1394 21.3333 50.6667C21.3333 49.1939 22.5272 48 24 48H29.3333ZM50.6667 37.3333C52.1394 37.3333 53.3333 38.5272 53.3333 40C53.3333 47.3638 47.3638 53.3333 40 53.3333C38.5272 53.3333 37.3333 52.1394 37.3333 50.6667C37.3333 49.1939 38.5272 48 40 48C44.4183 48 48 44.4183 48 40C48 38.5272 49.1939 37.3333 50.6667 37.3333ZM2.66667 21.3333C4.13943 21.3333 5.33333 22.5272 5.33333 24V29.3333C5.33333 30.8061 4.13943 32 2.66667 32C1.19391 32 -1.38008e-09 30.8061 0 29.3333V24C6.43764e-08 22.5272 1.19391 21.3333 2.66667 21.3333ZM50.6667 21.3333C52.1394 21.3333 53.3333 22.5272 53.3333 24V29.3333C53.3333 30.8061 52.1394 32 50.6667 32C49.1939 32 48 30.8061 48 29.3333V24C48 22.5272 49.1939 21.3333 50.6667 21.3333ZM13.3333 0C14.8061 0 16 1.19391 16 2.66667C16 4.13943 14.8061 5.33333 13.3333 5.33333C8.91506 5.33333 5.33333 8.91506 5.33333 13.3333C5.33333 14.8061 4.13943 16 2.66667 16C1.19391 16 0 14.8061 0 13.3333C0 5.96954 5.96954 0 13.3333 0ZM40 0C47.3638 0 53.3333 5.96954 53.3333 13.3333C53.3333 14.8061 52.1394 16 50.6667 16C49.1939 16 48 14.8061 48 13.3333C48 8.91506 44.4183 5.33333 40 5.33333C38.5272 5.33333 37.3333 4.13943 37.3333 2.66667C37.3333 1.19391 38.5272 0 40 0ZM29.3333 0C30.8061 0 32 1.19391 32 2.66667C32 4.13943 30.8061 5.33333 29.3333 5.33333H24C22.5272 5.33333 21.3333 4.13943 21.3333 2.66667C21.3333 1.19391 22.5272 0 24 0H29.3333Z" fill="#191919"/>
<path opacity="0.1" d="M63.9997 50.6666V16C63.9997 15.2927 63.7187 14.6145 63.2186 14.1144C62.7185 13.6143 62.0403 13.3333 61.333 13.3333C60.6258 13.3333 59.9475 13.6143 59.4474 14.1144C58.9473 14.6145 58.6663 15.2927 58.6663 16V50.6666C58.6663 52.7884 57.8235 54.8232 56.3232 56.3235C54.8229 57.8238 52.7881 58.6666 50.6663 58.6666H15.9997C15.2924 58.6666 14.6142 58.9476 14.1141 59.4477C13.614 59.9478 13.333 60.6261 13.333 61.3333C13.333 62.0406 13.614 62.7188 14.1141 63.2189C14.6142 63.719 15.2924 64 15.9997 64H50.6663C54.2013 63.9957 57.5902 62.5896 60.0898 60.0901C62.5893 57.5905 63.9954 54.2016 63.9997 50.6666Z" fill="#191919"/>
<path d="M35.1856 21.8525L30.4042 26.6339L35.1856 31.4152C35.4403 31.6612 35.6434 31.9555 35.7832 32.2808C35.9229 32.6061 35.9965 32.9561 35.9996 33.3101C36.0026 33.6642 35.9352 34.0154 35.8011 34.3431C35.667 34.6708 35.469 34.9685 35.2186 35.2189C34.9682 35.4693 34.6705 35.6673 34.3428 35.8014C34.0151 35.9355 33.6639 36.003 33.3098 35.9999C32.9558 35.9968 32.6058 35.9232 32.2805 35.7835C31.9551 35.6437 31.6609 35.4406 31.4149 35.1859L26.6336 30.4045L21.8522 35.1859C21.3493 35.6716 20.6757 35.9404 19.9765 35.9343C19.2773 35.9283 18.6085 35.6478 18.1141 35.1534C17.6196 34.659 17.3392 33.9901 17.3331 33.2909C17.327 32.5918 17.5958 31.9181 18.0816 31.4152L22.8629 26.6339L18.0816 21.8525C17.5958 21.3496 17.327 20.676 17.3331 19.9768C17.3392 19.2776 17.6196 18.6088 18.1141 18.1144C18.6085 17.6199 19.2773 17.3395 19.9765 17.3334C20.6757 17.3273 21.3493 17.5961 21.8522 18.0819L26.6336 22.8632L31.4149 18.0819C31.9178 17.5961 32.5914 17.3273 33.2906 17.3334C33.9898 17.3395 34.6587 17.6199 35.1531 18.1144C35.6475 18.6088 35.928 19.2776 35.934 19.9768C35.9401 20.676 35.6713 21.3496 35.1856 21.8525Z" fill="#F75708"/>
</g>
<defs>
<clipPath id="clip0_175_120">
<rect width="64" height="64" fill="white"/>
</clipPath>
</defs>
</svg>
