<svg width="16" height="16" viewBox="0 0 16 16" fill="none" xmlns="http://www.w3.org/2000/svg">
<g clip-path="url(#clip0_186_190)">
<path d="M12.6667 16H3.33333C2.4496 15.9989 1.60237 15.6474 0.97748 15.0225C0.352588 14.3976 0.00105857 13.5504 0 12.6667L0 3.33333C0.00105857 2.4496 0.352588 1.60237 0.97748 0.97748C1.60237 0.352588 2.4496 0.00105857 3.33333 0L12.6667 0C13.5504 0.00105857 14.3976 0.352588 15.0225 0.97748C15.6474 1.60237 15.9989 2.4496 16 3.33333V12.6667C15.9989 13.5504 15.6474 14.3976 15.0225 15.0225C14.3976 15.6474 13.5504 15.9989 12.6667 16ZM3.33333 1.33333C2.8029 1.33333 2.29419 1.54405 1.91912 1.91912C1.54405 2.29419 1.33333 2.8029 1.33333 3.33333V12.6667C1.33333 13.1971 1.54405 13.7058 1.91912 14.0809C2.29419 14.456 2.8029 14.6667 3.33333 14.6667H12.6667C13.1971 14.6667 13.7058 14.456 14.0809 14.0809C14.456 13.7058 14.6667 13.1971 14.6667 12.6667V3.33333C14.6667 2.8029 14.456 2.29419 14.0809 1.91912C13.7058 1.54405 13.1971 1.33333 12.6667 1.33333H3.33333Z" fill="#F75708"/>
<path d="M3.33333 1.33333C2.8029 1.33333 2.29419 1.54405 1.91912 1.91912C1.54405 2.29419 1.33333 2.8029 1.33333 3.33333V12.6667C1.33333 13.1971 1.54405 13.7058 1.91912 14.0809C2.29419 14.456 2.8029 14.6667 3.33333 14.6667H12.6667C13.1971 14.6667 13.7058 14.456 14.0809 14.0809C14.456 13.7058 14.6667 13.1971 14.6667 12.6667V3.33333C14.6667 2.8029 14.456 2.29419 14.0809 1.91912C13.7058 1.54405 13.1971 1.33333 12.6667 1.33333H3.33333Z" fill="#F75708"/>
<path d="M6.2288 11.3367C5.95089 11.3358 5.67814 11.2615 5.43814 11.1214C5.20103 10.9857 5.00424 10.7894 4.86789 10.5527C4.73154 10.3159 4.66054 10.0472 4.66214 9.77404V6.22604C4.66191 5.9528 4.73355 5.68431 4.86986 5.4475C5.00617 5.21069 5.20236 5.0139 5.43875 4.87686C5.67513 4.73982 5.9434 4.66736 6.21664 4.66675C6.48988 4.66614 6.75847 4.73739 6.99547 4.87337L10.5141 6.63004C10.7586 6.76198 10.9632 6.95689 11.107 7.19456C11.2507 7.43223 11.3282 7.70402 11.3316 7.98176C11.3349 8.25949 11.2639 8.53307 11.1259 8.77412C10.9879 9.01517 10.788 9.21494 10.5468 9.3527L6.9628 11.144C6.73927 11.2715 6.48613 11.338 6.2288 11.3367ZM6.21214 6.00337C6.17539 6.00336 6.1393 6.01301 6.10747 6.03137C6.07289 6.0506 6.0442 6.07888 6.02447 6.11317C6.00474 6.14746 5.99472 6.18648 5.99547 6.22604V9.77404C5.99569 9.81301 6.00605 9.85125 6.02553 9.885C6.045 9.91876 6.07292 9.94687 6.10654 9.96657C6.14017 9.98627 6.17834 9.99689 6.2173 9.99738C6.25627 9.99787 6.29469 9.98822 6.3288 9.96937L9.9128 8.17737C9.93949 8.15649 9.96072 8.12945 9.97465 8.09856C9.98859 8.06767 9.99482 8.03386 9.9928 8.00004C9.99364 7.96039 9.98357 7.92126 9.96371 7.88694C9.94384 7.85261 9.91493 7.8244 9.88014 7.80537L6.36414 6.0487C6.3183 6.02058 6.26589 6.00495 6.21214 6.00337Z" fill="white"/>
<path d="M6.21214 6.00337C6.17539 6.00336 6.1393 6.01301 6.10747 6.03137C6.07289 6.0506 6.0442 6.07888 6.02447 6.11317C6.00474 6.14746 5.99472 6.18648 5.99547 6.22604V9.77404C5.99569 9.81301 6.00605 9.85125 6.02553 9.885C6.045 9.91876 6.07292 9.94687 6.10654 9.96657C6.14017 9.98627 6.17834 9.99689 6.2173 9.99738C6.25627 9.99787 6.29469 9.98822 6.3288 9.96937L9.9128 8.17737C9.93949 8.15649 9.96072 8.12945 9.97465 8.09856C9.98859 8.06767 9.99482 8.03386 9.9928 8.00004C9.99364 7.96039 9.98357 7.92126 9.96371 7.88694C9.94384 7.85261 9.91493 7.8244 9.88014 7.80537L6.36414 6.0487C6.3183 6.02058 6.26589 6.00495 6.21214 6.00337Z" fill="white"/>
</g>
<defs>
<clipPath id="clip0_186_190">
<rect width="16" height="16" fill="white"/>
</clipPath>
</defs>
</svg>
