<svg width="24" height="24" viewBox="0 0 24 24" fill="none" xmlns="http://www.w3.org/2000/svg">
<path d="M20.9999 4H17.8999C17.6678 2.87141 17.0537 1.85735 16.1612 1.12872C15.2686 0.40009 14.1521 0.00145452 12.9999 0L10.9999 0C9.8477 0.00145452 8.73123 0.40009 7.83866 1.12872C6.94609 1.85735 6.332 2.87141 6.09991 4H2.99991C2.73469 4 2.48034 4.10536 2.2928 4.29289C2.10527 4.48043 1.99991 4.73478 1.99991 5C1.99991 5.26522 2.10527 5.51957 2.2928 5.70711C2.48034 5.89464 2.73469 6 2.99991 6H3.99991V19C4.0015 20.3256 4.52879 21.5964 5.46613 22.5338C6.40347 23.4711 7.67431 23.9984 8.99991 24H14.9999C16.3255 23.9984 17.5964 23.4711 18.5337 22.5338C19.471 21.5964 19.9983 20.3256 19.9999 19V6H20.9999C21.2651 6 21.5195 5.89464 21.707 5.70711C21.8946 5.51957 21.9999 5.26522 21.9999 5C21.9999 4.73478 21.8946 4.48043 21.707 4.29289C21.5195 4.10536 21.2651 4 20.9999 4V4ZM10.9999 2H12.9999C13.6202 2.00076 14.225 2.19338 14.7315 2.55144C15.238 2.90951 15.6213 3.41549 15.8289 4H8.17091C8.37849 3.41549 8.76181 2.90951 9.2683 2.55144C9.77478 2.19338 10.3796 2.00076 10.9999 2V2ZM17.9999 19C17.9999 19.7956 17.6838 20.5587 17.1212 21.1213C16.5586 21.6839 15.7956 22 14.9999 22H8.99991C8.20426 22 7.4412 21.6839 6.87859 21.1213C6.31598 20.5587 5.99991 19.7956 5.99991 19V6H17.9999V19Z" fill="#F75708"/>
<path d="M10 17.9994C10.2652 17.9994 10.5196 17.894 10.7071 17.7065C10.8946 17.5189 11 17.2646 11 16.9994V10.9994C11 10.7342 10.8946 10.4798 10.7071 10.2923C10.5196 10.1047 10.2652 9.99939 10 9.99939C9.73478 9.99939 9.48043 10.1047 9.29289 10.2923C9.10536 10.4798 9 10.7342 9 10.9994V16.9994C9 17.2646 9.10536 17.5189 9.29289 17.7065C9.48043 17.894 9.73478 17.9994 10 17.9994Z" fill="#F75708"/>
<path d="M13.9999 17.9994C14.2651 17.9994 14.5194 17.894 14.707 17.7065C14.8945 17.5189 14.9999 17.2646 14.9999 16.9994V10.9994C14.9999 10.7342 14.8945 10.4798 14.707 10.2923C14.5194 10.1047 14.2651 9.99939 13.9999 9.99939C13.7346 9.99939 13.4803 10.1047 13.2927 10.2923C13.1052 10.4798 12.9998 10.7342 12.9998 10.9994V16.9994C12.9998 17.2646 13.1052 17.5189 13.2927 17.7065C13.4803 17.894 13.7346 17.9994 13.9999 17.9994Z" fill="#F75708"/>
</svg>
