<svg width="16" height="16" viewBox="0 0 16 16" fill="none" xmlns="http://www.w3.org/2000/svg">
<g clip-path="url(#clip0_186_209)">
<path d="M12.6667 16H3.33333C2.4496 15.9989 1.60237 15.6474 0.97748 15.0225C0.352588 14.3976 0.00105857 13.5504 0 12.6667L0 3.33333C0.00105857 2.4496 0.352588 1.60237 0.97748 0.97748C1.60237 0.352588 2.4496 0.00105857 3.33333 0L12.6667 0C13.5504 0.00105857 14.3976 0.352588 15.0225 0.97748C15.6474 1.60237 15.9989 2.4496 16 3.33333V12.6667C15.9989 13.5504 15.6474 14.3976 15.0225 15.0225C14.3976 15.6474 13.5504 15.9989 12.6667 16ZM3.33333 1.33333C2.8029 1.33333 2.29419 1.54405 1.91912 1.91912C1.54405 2.29419 1.33333 2.8029 1.33333 3.33333V12.6667C1.33333 13.1971 1.54405 13.7058 1.91912 14.0809C2.29419 14.456 2.8029 14.6667 3.33333 14.6667H12.6667C13.1971 14.6667 13.7058 14.456 14.0809 14.0809C14.456 13.7058 14.6667 13.1971 14.6667 12.6667V3.33333C14.6667 2.8029 14.456 2.29419 14.0809 1.91912C13.7058 1.54405 13.1971 1.33333 12.6667 1.33333H3.33333Z" fill="#F75708"/>
<path d="M3.33333 1.33333C2.8029 1.33333 2.29419 1.54405 1.91912 1.91912C1.54405 2.29419 1.33333 2.8029 1.33333 3.33333V12.6667C1.33333 13.1971 1.54405 13.7058 1.91912 14.0809C2.29419 14.456 2.8029 14.6667 3.33333 14.6667H12.6667C13.1971 14.6667 13.7058 14.456 14.0809 14.0809C14.456 13.7058 14.6667 13.1971 14.6667 12.6667V3.33333C14.6667 2.8029 14.456 2.29419 14.0809 1.91912C13.7058 1.54405 13.1971 1.33333 12.6667 1.33333H3.33333Z" fill="#F75708"/>
<path d="M6.22801 11.3367C5.95009 11.3357 5.67735 11.2615 5.43734 11.1213C5.20024 10.9856 5.00344 10.7894 4.8671 10.5526C4.73075 10.3159 4.65974 10.0472 4.66134 9.77401V6.22601C4.66112 5.95277 4.73275 5.68428 4.86906 5.44747C5.00537 5.21066 5.20157 5.01387 5.43795 4.87683C5.67434 4.73979 5.94261 4.66733 6.21585 4.66672C6.48908 4.66611 6.75768 4.73736 6.99468 4.87334L10.5133 6.63001C10.7578 6.76195 10.9624 6.95686 11.1062 7.19453C11.2499 7.4322 11.3275 7.70399 11.3308 7.98173C11.3341 8.25946 11.2631 8.53303 11.1251 8.77409C10.9871 9.01514 10.7872 9.21491 10.546 9.35267L6.96201 11.144C6.73848 11.2715 6.48534 11.338 6.22801 11.3367ZM6.21134 6.00334C6.1746 6.00333 6.1385 6.01298 6.10668 6.03134C6.0721 6.05057 6.04341 6.07885 6.02368 6.11314C6.00395 6.14743 5.99392 6.18645 5.99468 6.22601V9.77401C5.9949 9.81298 6.00526 9.85122 6.02473 9.88497C6.04421 9.91873 6.07213 9.94684 6.10575 9.96654C6.13937 9.98624 6.17754 9.99686 6.21651 9.99735C6.25548 9.99784 6.2939 9.98819 6.32801 9.96934L9.91201 8.17734C9.9387 8.15646 9.95993 8.12942 9.97386 8.09853C9.9878 8.06764 9.99402 8.03383 9.99201 8.00001C9.99284 7.96035 9.98278 7.92123 9.96291 7.88691C9.94305 7.85258 9.91414 7.82437 9.87934 7.80534L6.36334 6.04867C6.3175 6.02055 6.2651 6.00492 6.21134 6.00334Z" fill="white"/>
<path d="M6.21134 6.00334C6.1746 6.00333 6.1385 6.01298 6.10668 6.03134C6.0721 6.05057 6.04341 6.07885 6.02368 6.11314C6.00395 6.14743 5.99392 6.18645 5.99468 6.22601V9.77401C5.9949 9.81298 6.00526 9.85122 6.02473 9.88497C6.04421 9.91873 6.07213 9.94684 6.10575 9.96654C6.13937 9.98624 6.17754 9.99686 6.21651 9.99735C6.25548 9.99784 6.2939 9.98819 6.32801 9.96934L9.91201 8.17734C9.9387 8.15646 9.95993 8.12942 9.97386 8.09853C9.9878 8.06764 9.99402 8.03383 9.99201 8.00001C9.99284 7.96035 9.98278 7.92123 9.96291 7.88691C9.94305 7.85258 9.91414 7.82437 9.87934 7.80534L6.36334 6.04867C6.3175 6.02055 6.2651 6.00492 6.21134 6.00334Z" fill="white"/>
</g>
<defs>
<clipPath id="clip0_186_209">
<rect width="16" height="16" fill="white"/>
</clipPath>
</defs>
</svg>
